HIERARCHY
ROOT Hips
{
	OFFSET 0.00 0.00 0.00
	CHANNELS 6 Xposition Yposition Zposition Xrotation Yrotation Zrotation
	JOINT Spine
	{
		OFFSET 0.00000 1.70439 2.55658
		CHANNELS 3 Xrotation Yrotation Zrotation
		JOINT Spine1
		{
			OFFSET 0.00000 0.59193 3.35699
			CHANNELS 3 Xrotation Yrotation Zrotation
			JOINT Spine2
			{
				OFFSET 0.00000 0.29710 3.39581
				CHANNELS 3 Xrotation Yrotation Zrotation
				JOINT Spine3
				{
					OFFSET 0.00000 0.00000 3.40878
					CHANNELS 3 Xrotation Yrotation Zrotation
					JOINT Neck
					{
						OFFSET 0.00000 -1.27828 8.94804
						CHANNELS 3 Xrotation Yrotation Zrotation
						JOINT Head
						{
							OFFSET 0.00000 -0.81390 4.61586
							CHANNELS 3 Xrotation Yrotation Zrotation
							End Site
							{
								OFFSET 0.00000 0.00001 5.51796
							}
						}
					}
					JOINT RightShoulder
					{
						OFFSET -1.18875 -1.98124 6.41925
						CHANNELS 3 Xrotation Yrotation Zrotation
						JOINT RightArm
						{
							OFFSET -5.90412 0.00000 0.00000
							CHANNELS 3 Xrotation Yrotation Zrotation
							JOINT RightForeArm
							{
								OFFSET -11.94674 0.00000 0.00000
								CHANNELS 3 Xrotation Yrotation Zrotation
								JOINT RightHand
								{
									OFFSET -10.17720 0.00000 0.00000
									CHANNELS 3 Xrotation Yrotation Zrotation
									JOINT RightHandEnd
									{
										OFFSET -2.84518 0.00000 0.00000
										CHANNELS 3 Xrotation Yrotation Zrotation
										End Site
										{
											OFFSET -2.84518 0.00000 0.00000
										}
									}
									JOINT RightHandThumb1
									{
										OFFSET -1.13807 -1.89679 -0.75871
										CHANNELS 3 Yrotation Xrotation Zrotation
										End Site
										{
											OFFSET -2.74823 -0.73639 0.00000
										}
									}
								}
							}
						}
					}
					JOINT LeftShoulder
					{
						OFFSET 1.18875 -1.98124 6.41925
						CHANNELS 3 Xrotation Yrotation Zrotation
						JOINT LeftArm
						{
							OFFSET 5.90412 0.00000 0.00000
							CHANNELS 3 Xrotation Yrotation Zrotation
							JOINT LeftForeArm
							{
								OFFSET 11.94674 0.00000 0.00000
								CHANNELS 3 Xrotation Yrotation Zrotation
								JOINT LeftHand
								{
									OFFSET 10.17720 0.00000 0.00000
									CHANNELS 3 Xrotation Yrotation Zrotation
									JOINT LeftHandEnd
									{
										OFFSET 2.84518 0.00000 0.00000
										CHANNELS 3 Xrotation Yrotation Zrotation
										End Site
										{
											OFFSET 2.84518 0.00000 0.00000
										}
									}
									JOINT LeftHandThumb1
									{
										OFFSET 1.13807 -1.89679 -0.75871
										CHANNELS 3 Yrotation Xrotation Zrotation
										End Site
										{
											OFFSET 2.74823 -0.73639 0.00000
										}
									}
								}
							}
						}
					}
				}
			}
		}
	}
	JOINT RightUpLeg
	{
		OFFSET -3.52662 0.00000 -1.03025
		CHANNELS 3 Xrotation Yrotation Zrotation
		JOINT RightLeg
		{
			OFFSET 0.00001 0.00000 -17.80159
			CHANNELS 3 Xrotation Yrotation Zrotation
			JOINT RightFoot
			{
				OFFSET 0.00001 0.00000 -16.85992
				CHANNELS 3 Xrotation Yrotation Zrotation
				JOINT RightToeBase
				{
					OFFSET 0.00000 -5.42953 -1.97619
					CHANNELS 3 Xrotation Yrotation Zrotation
					End Site
					{
						OFFSET 0.00000 -2.85300 -0.00000
					}
				}
			}
		}
	}
	JOINT LeftUpLeg
	{
		OFFSET 3.52662 0.00000 -1.03025
		CHANNELS 3 Xrotation Yrotation Zrotation
		JOINT LeftLeg
		{
			OFFSET 0.00001 0.00000 -17.80159
			CHANNELS 3 Xrotation Yrotation Zrotation
			JOINT LeftFoot
			{
				OFFSET 0.00001 0.00000 -16.85992
				CHANNELS 3 Xrotation Yrotation Zrotation
				JOINT LeftToeBase
				{
					OFFSET 0.00000 -5.42953 -1.97619
					CHANNELS 3 Xrotation Yrotation Zrotation
					End Site
					{
						OFFSET 0.00000 -2.85300 -0.00000
					}
				}
			}
		}
	}
}
MOTION
Frames: 18
Frame Time: 0.008342
 2.4383 -16.0625 37.9259 4.7264 1.4952 -177.8398 1.3731 -0.2773 -0.5406 0.7157 -0.0743 -0.1649 -0.7339 -1.7527 -1.2573 -0.4875 0.3409 0.0305 1.9834 -1.1147 -1.3148 -0.3331 1.8023 0.2551 -3.4084 5.1452 0.3052 -3.5626 6.4125 -0.4757 0.0000 0.0000 10.6044 -2.0589 17.5920 -3.3590 0.0000 0.0000 0.0000 -0.0000 -0.0000 -0.0000 -1.3817 -2.4391 -2.5748 -14.4314 6.9280 7.2226 -0.0000 -0.0000 -15.7144 -8.9904 -13.7183 6.5877 -0.0000 -0.0000 0.0000 0.0000 -0.0000 0.0000 3.4472 9.0933 -29.9739 13.4505 0.0000 0.0000 -11.2708 -6.7946 -2.2070 2.2593 0.0000 0.0000 4.8035 -3.3380 10.3629 10.1196 0.0000 0.0000 -8.4946 13.9331 7.2938 -6.0036 0.0000 -0.0000
 2.4441 -16.0544 37.9260 4.7378 1.4727 -177.8597 1.3718 -0.2738 -0.5403 0.7196 -0.0658 -0.1633 -0.7407 -1.7619 -1.2581 -0.4928 0.3387 0.0337 1.9462 -1.1489 -1.3196 -0.3185 1.8122 0.2708 -3.4251 5.1436 0.3133 -3.5087 6.4432 -0.4627 0.0000 0.0000 10.5910 -2.0545 17.6566 -3.3426 0.0000 0.0000 0.0000 0.0000 -0.0000 -0.0000 -1.4476 -2.4591 -2.5892 -14.4067 6.8599 7.2007 -0.0000 -0.0000 -15.6623 -8.9715 -13.6681 6.5818 0.0000 0.0000 -0.0000 -0.0000 0.0000 -0.0000 3.4892 9.0567 -30.0189 13.4038 0.0000 0.0000 -11.2497 -6.8063 -2.1475 2.2528 0.0000 0.0000 4.8252 -3.3656 10.3565 10.1288 0.0000 0.0000 -8.5198 13.9207 7.3327 -6.0050 0.0000 -0.0000
 2.4517 -16.0434 37.9262 4.7644 1.4434 -177.8903 1.3818 -0.2683 -0.5400 0.7269 -0.0602 -0.1620 -0.7523 -1.7703 -1.2534 -0.4996 0.3363 0.0373 1.8999 -1.1916 -1.3244 -0.3004 1.8223 0.2902 -3.4407 5.1444 0.3272 -3.4331 6.4790 -0.4516 0.0000 0.0000 10.5749 -2.0467 17.7250 -3.3193 -0.0000 0.0000 -0.0000 -0.0000 -0.0000 0.0000 -1.5297 -2.4876 -2.6082 -14.3814 6.7762 7.1757 -0.0000 -0.0000 -15.5955 -8.9543 -13.6067 6.5724 0.0000 -0.0000 -0.0000 0.0000 0.0000 0.0000 3.5521 9.0111 -30.0714 13.3509 0.0000 0.0000 -11.2223 -6.8270 -2.0716 2.2394 0.0000 0.0000 4.8701 -3.4024 10.3602 10.1347 0.0000 0.0000 -8.5484 13.9097 7.3742 -6.0063 0.0000 -0.0000
 2.4612 -16.0300 37.9265 4.7992 1.4085 -177.9333 1.3984 -0.2623 -0.5389 0.7318 -0.0552 -0.1592 -0.7635 -1.7764 -1.2463 -0.5081 0.3321 0.0441 1.8449 -1.2410 -1.3278 -0.2812 1.8321 0.3126 -3.4537 5.1483 0.3445 -3.3371 6.5181 -0.4378 0.0000 0.0000 10.5527 -2.0392 17.7935 -3.2859 -0.0000 -0.0000 -0.0000 0.0000 0.0000 0.0000 -1.6276 -2.5210 -2.6288 -14.3541 6.6762 7.1438 -0.0000 -0.0000 -15.5128 -8.9445 -13.5369 6.5563 -0.0000 -0.0000 -0.0000 0.0000 0.0000 0.0000 3.6239 8.9595 -30.1238 13.2988 0.0000 0.0000 -11.1911 -6.8564 -1.9842 2.2187 0.0000 0.0000 4.9307 -3.4467 10.3767 10.1376 0.0000 0.0000 -8.5796 13.9012 7.4175 -6.0072 0.0000 -0.0000
 2.4721 -16.0148 37.9267 4.8339 1.3712 -177.9893 1.4109 -0.2534 -0.5377 0.7401 -0.0502 -0.1569 -0.7771 -1.7827 -1.2300 -0.5174 0.3283 0.0502 1.7826 -1.2951 -1.3289 -0.2626 1.8412 0.3374 -3.4645 5.1539 0.3678 -3.2219 6.5605 -0.4255 0.0000 0.0000 10.5273 -2.0300 17.8540 -3.2461 -0.0000 0.0000 -0.0000 -0.0000 -0.0000 0.0000 -1.7389 -2.5573 -2.6504 -14.3297 6.5616 7.1076 -0.0000 -0.0000 -15.4182 -8.9405 -13.4613 6.5369 0.0000 -0.0000 -0.0000 0.0000 -0.0000 0.0000 3.6917 8.9078 -30.1717 13.2550 0.0000 0.0000 -11.1598 -6.8931 -1.8888 2.1911 0.0000 0.0000 4.9970 -3.4939 10.4026 10.1381 0.0000 0.0000 -8.6128 13.8955 7.4657 -6.0077 0.0000 -0.0000
 2.4844 -15.9981 37.9269 4.8714 1.3317 -178.0584 1.4246 -0.2431 -0.5354 0.7491 -0.0459 -0.1553 -0.7924 -1.7871 -1.2053 -0.5269 0.3243 0.0562 1.7155 -1.3521 -1.3269 -0.2457 1.8487 0.3637 -3.4706 5.1626 0.3967 -3.0933 6.6019 -0.4142 0.0000 0.0000 10.4985 -2.0199 17.9022 -3.2006 -0.0000 0.0000 -0.0000 0.0000 0.0000 -0.0000 -1.8598 -2.5973 -2.6724 -14.3099 6.4376 7.0698 -0.0000 -0.0000 -15.3145 -8.9440 -13.3840 6.5121 -0.0000 0.0000 -0.0000 0.0000 -0.0000 0.0000 3.7574 8.8556 -30.2083 13.2207 0.0000 0.0000 -11.1294 -6.9355 -1.7921 2.1566 0.0000 0.0000 5.0731 -3.5442 10.4417 10.1340 0.0000 0.0000 -8.6459 13.8940 7.5146 -6.0081 0.0000 -0.0000
 2.4977 -15.9801 37.9271 4.9140 1.2917 -178.1405 1.4429 -0.2320 -0.5326 0.7568 -0.0429 -0.1514 -0.8071 -1.7884 -1.1758 -0.5371 0.3210 0.0648 1.6466 -1.4096 -1.3223 -0.2313 1.8533 0.3909 -3.4727 5.1744 0.4314 -2.9523 6.6395 -0.4053 0.0000 0.0000 10.4661 -2.0118 17.9321 -3.1489 0.0000 -0.0000 -0.0000 0.0000 -0.0000 -0.0000 -1.9856 -2.6392 -2.6935 -14.2966 6.3072 7.0298 -0.0000 -0.0000 -15.2039 -8.9582 -13.3087 6.4827 0.0000 0.0000 0.0000 0.0000 0.0000 0.0000 3.8217 8.8051 -30.2293 13.1975 0.0000 0.0000 -11.1017 -6.9815 -1.6983 2.1168 0.0000 0.0000 5.1614 -3.5950 10.4950 10.1235 0.0000 0.0000 -8.6774 13.8970 7.5629 -6.0081 0.0000 -0.0000
 2.5119 -15.9620 37.9272 4.9520 1.2513 -178.2332 1.4561 -0.2210 -0.5290 0.7652 -0.0412 -0.1484 -0.8217 -1.7864 -1.1376 -0.5468 0.3180 0.0726 1.5779 -1.4652 -1.3138 -0.2215 1.8553 0.4174 -3.4701 5.1879 0.4713 -2.8072 6.6720 -0.3980 0.0000 0.0000 10.4311 -2.0040 17.9417 -3.0961 0.0000 0.0000 0.0000 0.0000 -0.0000 0.0000 -2.1136 -2.6813 -2.7120 -14.2913 6.1752 6.9905 -0.0000 -0.0000 -15.0914 -8.9815 -13.2404 6.4488 0.0000 -0.0000 -0.0000 -0.0000 -0.0000 0.0000 3.8727 8.7564 -30.2287 13.1873 0.0000 0.0000 -11.0785 -7.0275 -1.6156 2.0734 0.0000 0.0000 5.2488 -3.6460 10.5599 10.1099 0.0000 0.0000 -8.7074 13.9043 7.6106 -6.0083 0.0000 -0.0000
 2.5265 -15.9440 37.9272 4.9879 1.2120 -178.3345 1.4680 -0.2107 -0.5249 0.7729 -0.0410 -0.1454 -0.8353 -1.7805 -1.0931 -0.5557 0.3157 0.0802 1.5118 -1.5167 -1.3016 -0.2162 1.8542 0.4426 -3.4631 5.2034 0.5161 -2.6624 6.6964 -0.3928 0.0000 0.0000 10.3943 -1.9968 17.9290 -3.0435 -0.0000 0.0000 -0.0000 0.0000 -0.0000 0.0000 -2.2392 -2.7230 -2.7268 -14.2966 6.0457 6.9532 -0.0000 -0.0000 -14.9804 -9.0175 -13.1831 6.4112 0.0000 0.0000 -0.0000 -0.0000 -0.0000 0.0000 3.9132 8.7100 -30.2052 13.1885 0.0000 0.0000 -11.0608 -7.0708 -1.5472 2.0274 0.0000 0.0000 5.3372 -3.6955 10.6343 10.0922 0.0000 0.0000 -8.7351 13.9151 7.6573 -6.0077 0.0000 -0.0000
 2.5413 -15.9267 37.9271 5.0189 1.1741 -178.4416 1.4760 -0.2014 -0.5190 0.7814 -0.0437 -0.1485 -0.8487 -1.7700 -1.0349 -0.5636 0.3152 0.0831 1.4505 -1.5629 -1.2856 -0.2159 1.8501 0.4656 -3.4522 5.2193 0.5649 -2.5238 6.7115 -0.3887 0.0000 0.0000 10.3560 -1.9912 17.8956 -2.9945 0.0000 0.0000 0.0000 0.0000 -0.0000 0.0000 -2.3600 -2.7642 -2.7369 -14.3118 5.9227 6.9197 -0.0000 -0.0000 -14.8743 -9.0610 -13.1396 6.3704 0.0000 0.0000 0.0000 -0.0000 -0.0000 0.0000 3.9412 8.6659 -30.1589 13.1990 0.0000 0.0000 -11.0488 -7.1083 -1.4961 1.9818 0.0000 0.0000 5.4217 -3.7426 10.7146 10.0720 0.0000 0.0000 -8.7604 13.9280 7.7039 -6.0076 0.0000 -0.0000
 2.5561 -15.9105 37.9269 5.0460 1.1390 -178.5511 1.4842 -0.1946 -0.5153 0.7858 -0.0422 -0.1405 -0.8590 -1.7597 -0.9898 -0.5704 0.3142 0.0920 1.3954 -1.6002 -1.2658 -0.2202 1.8429 0.4850 -3.4389 5.2373 0.6179 -2.3945 6.7158 -0.3865 0.0000 0.0000 10.3169 -1.9886 17.8436 -2.9511 0.0000 0.0000 0.0000 -0.0000 -0.0000 0.0000 -2.4736 -2.8019 -2.7409 -14.3372 5.8085 6.8897 -0.0000 -0.0000 -14.7757 -9.1122 -13.1117 6.3288 -0.0000 0.0000 0.0000 -0.0000 0.0000 0.0000 3.9594 8.6241 -30.0924 13.2154 0.0000 0.0000 -11.0427 -7.1380 -1.4629 1.9384 0.0000 0.0000 5.5019 -3.7858 10.7961 10.0500 0.0000 0.0000 -8.7833 13.9413 7.7517 -6.0080 0.0000 -0.0000
 2.5708 -15.8957 37.9268 5.0684 1.1040 -178.6598 1.4901 -0.1911 -0.5108 0.7903 -0.0444 -0.1371 -0.8681 -1.7441 -0.9381 -0.5762 0.3142 0.0978 1.3471 -1.6298 -1.2438 -0.2283 1.8332 0.5013 -3.4237 5.2548 0.6722 -2.2780 6.7096 -0.3843 0.0000 0.0000 10.2776 -1.9867 17.7772 -2.9162 0.0000 0.0000 0.0000 -0.0000 -0.0000 0.0000 -2.5786 -2.8380 -2.7395 -14.3703 5.7055 6.8644 -0.0000 -0.0000 -14.6861 -9.1701 -13.1012 6.2852 -0.0000 0.0000 -0.0000 -0.0000 0.0000 0.0000 3.9702 8.5796 -30.0093 13.2307 0.0000 0.0000 -11.0398 -7.1580 -1.4475 1.8980 0.0000 0.0000 5.5746 -3.8284 10.8772 10.0291 0.0000 0.0000 -8.8052 13.9537 7.7996 -6.0083 0.0000 -0.0000
 2.5854 -15.8823 37.9267 5.0871 1.0696 -178.7646 1.4961 -0.1891 -0.5053 0.7945 -0.0526 -0.1386 -0.8768 -1.7224 -0.8815 -0.5805 0.3144 0.0996 1.3056 -1.6509 -1.2195 -0.2390 1.8213 0.5131 -3.4074 5.2710 0.7274 -2.1761 6.6941 -0.3812 0.0000 0.0000 10.2383 -1.9868 17.7007 -2.8911 -0.0000 0.0000 0.0000 -0.0000 -0.0000 -0.0000 -2.6747 -2.8716 -2.7312 -14.4090 5.6144 6.8417 -0.0000 -0.0000 -14.6050 -9.2338 -13.1073 6.2413 0.0000 -0.0000 -0.0000 0.0000 0.0000 0.0000 3.9778 8.5322 -29.9173 13.2401 0.0000 0.0000 -11.0386 -7.1679 -1.4452 1.8625 0.0000 0.0000 5.6395 -3.8699 10.9526 10.0103 0.0000 0.0000 -8.8266 13.9631 7.8500 -6.0091 0.0000 -0.0000
 2.5996 -15.8706 37.9267 5.0985 1.0360 -178.8628 1.4982 -0.1919 -0.5019 0.7971 -0.0546 -0.1351 -0.8826 -1.7044 -0.8350 -0.5844 0.3151 0.1039 1.2704 -1.6626 -1.1942 -0.2516 1.8083 0.5206 -3.3910 5.2879 0.7818 -2.0898 6.6689 -0.3771 0.0000 0.0000 10.1995 -1.9893 17.6206 -2.8753 0.0000 0.0000 0.0000 -0.0000 -0.0000 0.0000 -2.7631 -2.9016 -2.7198 -14.4523 5.5347 6.8256 -0.0000 -0.0000 -14.5347 -9.2990 -13.1284 6.1979 0.0000 -0.0000 -0.0000 -0.0000 -0.0000 0.0000 3.9802 8.4819 -29.8222 13.2409 0.0000 0.0000 -11.0381 -7.1678 -1.4525 1.8326 0.0000 0.0000 5.6909 -3.9100 11.0179 9.9962 0.0000 0.0000 -8.8487 13.9677 7.9050 -6.0100 0.0000 -0.0000
 2.6136 -15.8606 37.9267 5.1037 1.0011 -178.9526 1.4982 -0.1977 -0.4984 0.7986 -0.0586 -0.1323 -0.8873 -1.6853 -0.7928 -0.5872 0.3167 0.1060 1.2404 -1.6679 -1.1686 -0.2650 1.7954 0.5244 -3.3761 5.3015 0.8361 -2.0166 6.6383 -0.3725 0.0000 0.0000 10.1619 -1.9939 17.5391 -2.8693 -0.0000 -0.0000 0.0000 0.0000 0.0000 -0.0000 -2.8443 -2.9323 -2.7029 -14.4983 5.4691 6.8134 -0.0000 -0.0000 -14.4734 -9.3628 -13.1638 6.1554 -0.0000 0.0000 -0.0000 -0.0000 -0.0000 0.0000 3.9822 8.4252 -29.7323 13.2270 0.0000 0.0000 -11.0346 -7.1589 -1.4631 1.8084 0.0000 0.0000 5.7290 -3.9517 11.0737 9.9886 0.0000 0.0000 -8.8721 13.9668 7.9623 -6.0111 0.0000 -0.0000
 2.6274 -15.8515 37.9270 5.1106 0.9644 -179.0324 1.5035 -0.2068 -0.4949 0.8008 -0.0618 -0.1318 -0.8928 -1.6676 -0.7546 -0.5896 0.3173 0.1063 1.2149 -1.6645 -1.1426 -0.2772 1.7811 0.5241 -3.3611 5.3148 0.8875 -1.9539 6.6033 -0.3644 0.0000 0.0000 10.1236 -2.0018 17.4602 -2.8710 0.0000 0.0000 -0.0000 -0.0000 -0.0000 0.0000 -2.9192 -2.9606 -2.6824 -14.5424 5.4135 6.8036 -0.0000 -0.0000 -14.4189 -9.4246 -13.2080 6.1145 -0.0000 -0.0000 0.0000 0.0000 -0.0000 -0.0000 3.9958 8.3615 -29.6588 13.1934 0.0000 0.0000 -11.0252 -7.1445 -1.4670 1.7898 0.0000 0.0000 5.7633 -3.9956 11.1182 9.9856 0.0000 0.0000 -8.8966 13.9604 8.0226 -6.0119 0.0000 -0.0000
 2.6412 -15.8441 37.9275 5.1059 0.9241 -179.1025 1.5002 -0.2185 -0.4915 0.8025 -0.0690 -0.1336 -0.8963 -1.6495 -0.7194 -0.5916 0.3188 0.1046 1.1918 -1.6569 -1.1178 -0.2892 1.7686 0.5209 -3.3482 5.3250 0.9362 -1.9002 6.5661 -0.3550 0.0000 0.0000 10.0870 -2.0116 17.3893 -2.8788 -0.0000 0.0000 -0.0000 -0.0000 -0.0000 -0.0000 -2.9908 -2.9865 -2.6588 -14.5801 5.3647 6.7936 -0.0000 -0.0000 -14.3693 -9.4821 -13.2579 6.0763 -0.0000 0.0000 0.0000 0.0000 -0.0000 -0.0000 4.0058 8.2894 -29.6007 13.1420 0.0000 0.0000 -11.0089 -7.1258 -1.4645 1.7773 0.0000 0.0000 5.7769 -4.0444 11.1540 9.9928 0.0000 0.0000 -8.9240 13.9482 8.0835 -6.0124 0.0000 -0.0000
 2.6546 -15.8371 37.9282 5.1082 0.8828 -179.1623 1.5078 -0.2336 -0.4900 0.8030 -0.0687 -0.1298 -0.9005 -1.6386 -0.6979 -0.5936 0.3188 0.1053 1.1708 -1.6422 -1.0939 -0.2976 1.7544 0.5139 -3.3345 5.3367 0.9816 -1.8517 6.5278 -0.3444 0.0000 0.0000 10.0516 -2.0231 17.3225 -2.8910 0.0000 -0.0000 0.0000 -0.0000 -0.0000 -0.0000 -3.0574 -3.0131 -2.6343 -14.6123 5.3260 6.7855 -0.0000 -0.0000 -14.3234 -9.5309 -13.3097 6.0410 -0.0000 -0.0000 0.0000 0.0000 -0.0000 0.0000 4.0355 8.2128 -29.5744 13.0693 0.0000 0.0000 -10.9836 -7.1079 -1.4397 1.7671 0.0000 0.0000 5.7939 -4.0946 11.1794 10.0026 0.0000 0.0000 -8.9516 13.9313 8.1460 -6.0114 0.0000 -0.0000
